<svg version="1" xmlns="http://www.w3.org/2000/svg" width="413.333" height="413.333" viewBox="0 0 310.000000 310.000000"><path d="M26.3 3.9c-2.9 1.1-6.5 2.8-8.1 4C13.4 11.3 7 18.8 4.7 23.8l-2.2 4.7v253l2.9 5.6c3.5 7.1 10.4 13.9 17.6 17.6l5.5 2.8h253l5.6-2.9c7.1-3.5 13.9-10.4 17.6-17.6l2.8-5.5v-253l-2.8-5.5c-3.7-7.2-10.5-14.1-17.6-17.6l-5.6-2.9-125-.2C36.1 2.1 31.3 2.1 26.3 3.9zm130.1 90.2c26 3.2 41.6 14.6 49.1 36 .8 2 1.9 8.1 2.5 13.4 1.3 10.6.2 26-2.4 34.7-5.6 18.5-18.8 31.1-38.1 36.4-4.7 1.3-12.1 1.8-34.6 2.1-25.7.5-28.7.3-30.2-1.2-1.6-1.5-1.7-6.8-1.7-60.1 0-38.4.4-59.2 1-60.5 1-1.8 2.3-1.9 23.3-1.9 12.2 0 26.2.5 31.1 1.1z"/><path d="M112 155v52h22.3c19 0 23.6-.3 30-2 23-5.8 33.6-22.2 33.7-51.5 0-22.7-7.6-37.2-23.4-44.6-9.9-4.6-19-5.9-42.2-5.9H112v52z"/></svg>